<?xml version="1.0" encoding="UTF-8"?>
<svg xmlns="http://www.w3.org/2000/svg" xmlns:xlink="http://www.w3.org/1999/xlink" width="267px" height="200px" viewBox="0 0 266 200" version="1.1">
<g id="surface1">
<path style=" stroke:none;fill-rule:nonzero;fill:rgb(0%,0%,0%);fill-opacity:1;" d="M 130.964844 30.933594 C 130.34375 30.984375 128.921875 31.089844 127.796875 31.164062 C 126.683594 31.234375 125.355469 31.355469 124.867188 31.414062 C 124.375 31.488281 123.40625 31.59375 122.714844 31.65625 C 121.507812 31.75 121.039062 31.835938 119.84375 32.132812 C 119.542969 32.207031 119.066406 32.324219 118.765625 32.398438 C 118.46875 32.46875 118.179688 32.566406 118.109375 32.613281 C 118.050781 32.675781 117.773438 32.757812 117.511719 32.804688 C 117.25 32.855469 116.925781 32.960938 116.792969 33.046875 C 116.660156 33.140625 116.46875 33.214844 116.363281 33.214844 C 116.242188 33.214844 116.003906 33.285156 115.8125 33.382812 C 115.632812 33.464844 115.285156 33.632812 115.058594 33.730469 C 114.640625 33.910156 112.835938 34.796875 112.210938 35.121094 C 112.035156 35.214844 111.867188 35.335938 111.828125 35.382812 C 111.792969 35.433594 111.625 35.539062 111.472656 35.613281 C 111.183594 35.730469 110.824219 35.933594 109.523438 36.75 C 108.996094 37.074219 107.90625 37.828125 107.585938 38.105469 C 107.523438 38.152344 106.925781 38.632812 106.269531 39.148438 C 104.332031 40.695312 103.242188 41.871094 102.320312 43.429688 C 102.261719 43.539062 101.867188 44.183594 101.460938 44.867188 C 100.527344 46.4375 99.246094 49.003906 98.507812 50.78125 C 98.386719 51.042969 98.21875 51.402344 98.125 51.582031 C 98.039062 51.75 97.957031 51.976562 97.957031 52.074219 C 97.957031 52.351562 97.371094 52.996094 97.117188 52.996094 C 97 52.996094 96.878906 53.035156 96.855469 53.09375 C 96.84375 53.140625 96.542969 53.320312 96.199219 53.5 C 93.636719 54.808594 90.648438 57.375 88.566406 60.046875 C 88.507812 60.132812 88.363281 60.300781 88.257812 60.40625 C 88.160156 60.515625 87.910156 60.851562 87.71875 61.152344 C 87.515625 61.449219 87.167969 61.964844 86.941406 62.289062 C 86.378906 63.140625 86.304688 63.25 85.78125 64.328125 C 85.183594 65.539062 84.941406 66.34375 84.800781 67.625 C 84.726562 68.1875 84.621094 68.910156 84.558594 69.246094 C 84.332031 70.539062 84.429688 72.074219 84.90625 74.582031 C 85.289062 76.546875 86.222656 78.417969 87.609375 79.964844 C 88.363281 80.804688 89.773438 82.132812 89.929688 82.132812 C 89.976562 82.132812 90.195312 82.324219 90.421875 82.554688 C 90.648438 82.78125 90.898438 82.972656 90.972656 82.972656 C 91.054688 82.972656 91.28125 83.164062 91.496094 83.40625 C 91.773438 83.730469 91.855469 83.910156 91.796875 84.101562 C 91.722656 84.351562 91.640625 85.382812 91.316406 90.46875 C 90.753906 99.328125 90.515625 111.007812 90.792969 116.726562 C 90.851562 118.175781 90.960938 120.597656 91.019531 122.121094 C 91.136719 125.167969 91.316406 127.902344 91.507812 129.917969 C 91.582031 130.636719 91.675781 131.773438 91.738281 132.433594 C 91.785156 133.09375 91.878906 134.039062 91.953125 134.53125 C 92.023438 135.023438 92.15625 135.910156 92.226562 136.511719 C 92.429688 138.128906 92.765625 140.394531 93.160156 142.804688 C 93.230469 143.238281 93.339844 143.957031 93.410156 144.425781 C 93.496094 144.878906 93.625 145.695312 93.722656 146.222656 C 93.816406 146.75 93.972656 147.613281 94.070312 148.140625 C 94.320312 149.53125 94.488281 150.347656 94.679688 151.007812 C 94.773438 151.320312 94.847656 151.703125 94.847656 151.847656 C 94.847656 151.976562 94.917969 152.339844 95.011719 152.636719 C 95.421875 153.898438 95.683594 154.867188 95.683594 155.011719 C 95.683594 155.097656 95.765625 155.335938 95.875 155.539062 C 95.984375 155.742188 96.078125 156.1875 96.101562 156.523438 C 96.136719 157.144531 96.363281 157.914062 96.507812 157.914062 C 96.59375 157.914062 97.597656 159.171875 97.597656 159.292969 C 97.597656 159.652344 99.222656 160.527344 100.585938 160.910156 C 101.078125 161.042969 101.652344 161.210938 101.84375 161.269531 C 102.046875 161.332031 102.609375 161.4375 103.097656 161.511719 C 103.589844 161.582031 104.1875 161.691406 104.414062 161.75 C 104.640625 161.8125 105.671875 161.917969 106.6875 161.992188 C 107.703125 162.074219 108.589844 162.160156 108.636719 162.195312 C 108.746094 162.265625 112.105469 162.015625 113.085938 161.859375 C 114.867188 161.582031 115.730469 161.367188 116.710938 160.960938 C 116.925781 160.863281 117.164062 160.792969 117.234375 160.792969 C 117.355469 160.792969 118.265625 160.394531 118.648438 160.179688 C 118.742188 160.121094 119.113281 159.941406 119.460938 159.761719 C 119.796875 159.59375 120.082031 159.414062 120.082031 159.363281 C 120.082031 159.316406 120.214844 159.207031 120.371094 159.136719 C 120.65625 159.003906 120.90625 158.5625 121.46875 157.195312 C 121.601562 156.90625 121.699219 156.367188 121.699219 155.996094 C 121.710938 155.636719 121.769531 155.035156 121.839844 154.675781 C 122.140625 153.308594 122.273438 152.324219 122.703125 148.679688 C 122.859375 147.300781 123.074219 143.070312 123.074219 141.476562 C 123.074219 140.695312 123.121094 140.277344 123.226562 140.191406 C 123.324219 140.109375 124.9375 140.097656 128.097656 140.144531 L 132.820312 140.226562 L 132.878906 144.066406 C 132.953125 148.128906 133.144531 150.132812 133.742188 153.238281 C 133.800781 153.597656 133.933594 154.328125 134.027344 154.855469 C 134.207031 155.921875 134.445312 156.8125 134.601562 157.0625 C 134.664062 157.160156 134.757812 157.433594 134.804688 157.660156 C 134.855469 157.902344 134.960938 158.285156 135.046875 158.511719 C 135.128906 158.742188 135.296875 159.234375 135.429688 159.59375 C 135.796875 160.597656 136.335938 161.714844 136.625 162.015625 C 137.019531 162.421875 138.25 163.1875 138.539062 163.1875 C 138.597656 163.1875 138.8125 163.273438 139.015625 163.371094 C 139.902344 163.777344 142.101562 164.472656 143.597656 164.820312 C 144.003906 164.902344 144.480469 165.035156 144.660156 165.109375 C 144.828125 165.167969 145.175781 165.226562 145.414062 165.226562 C 145.652344 165.226562 146.15625 165.3125 146.515625 165.40625 C 147.398438 165.660156 152.664062 165.78125 154.410156 165.597656 C 156.273438 165.40625 157.828125 165.109375 159.207031 164.675781 C 159.515625 164.582031 159.839844 164.507812 159.921875 164.507812 C 160.019531 164.496094 160.304688 164.402344 160.570312 164.269531 C 160.832031 164.136719 161.105469 164.039062 161.191406 164.027344 C 161.261719 164.027344 161.476562 163.945312 161.667969 163.847656 C 161.847656 163.765625 162.253906 163.574219 162.554688 163.429688 C 163.714844 162.914062 164.335938 161.976562 164.707031 160.191406 C 164.765625 159.890625 164.875 159.640625 164.933594 159.617188 C 165.007812 159.59375 165.054688 159.449219 165.054688 159.292969 C 165.054688 159.136719 165.113281 158.859375 165.171875 158.679688 C 165.246094 158.5 165.351562 157.949219 165.414062 157.445312 C 165.484375 156.941406 165.617188 156.1875 165.710938 155.753906 C 166.070312 154.125 166.179688 153.511719 166.597656 150.359375 C 166.679688 149.796875 166.800781 148.957031 166.859375 148.5 C 166.933594 148.035156 167.027344 147.0625 167.085938 146.34375 C 167.148438 145.613281 167.253906 144.710938 167.328125 144.328125 C 167.398438 143.945312 167.503906 142.722656 167.566406 141.628906 C 167.625 140.527344 167.734375 139.304688 167.804688 138.910156 C 167.863281 138.511719 167.925781 137.984375 167.925781 137.734375 C 167.925781 137.433594 167.984375 137.253906 168.105469 137.207031 C 168.210938 137.171875 168.84375 137.230469 169.539062 137.339844 C 171.679688 137.675781 176.128906 137.507812 178.089844 137.027344 C 178.390625 136.953125 179.046875 136.859375 179.550781 136.8125 C 180.050781 136.773438 180.53125 136.679688 180.625 136.605469 C 180.710938 136.535156 180.972656 136.4375 181.199219 136.390625 C 181.429688 136.34375 181.726562 136.222656 181.859375 136.140625 C 181.988281 136.042969 182.15625 135.972656 182.230469 135.972656 C 182.503906 135.972656 183.832031 134.988281 184.550781 134.269531 C 184.945312 133.859375 185.457031 133.238281 185.699219 132.867188 C 185.9375 132.492188 186.234375 132.050781 186.355469 131.871094 C 186.488281 131.691406 186.582031 131.488281 186.582031 131.425781 C 186.582031 131.367188 186.65625 131.164062 186.75 130.972656 C 187.214844 130.011719 187.277344 129.832031 187.660156 128.296875 C 187.742188 127.996094 187.863281 127.566406 187.933594 127.339844 C 188.136719 126.65625 188.375 124.867188 188.820312 120.5625 C 189.082031 117.984375 189.117188 106.414062 188.878906 102.878906 C 188.796875 101.65625 188.675781 99.304688 188.605469 97.660156 C 188.316406 90.457031 187.910156 86.414062 186.761719 79.4375 C 186.679688 78.910156 186.546875 78.285156 186.476562 78.058594 C 186.402344 77.828125 186.34375 77.445312 186.34375 77.21875 C 186.332031 76.992188 186.261719 76.667969 186.164062 76.5 C 186.070312 76.332031 185.996094 76.066406 185.984375 75.910156 C 185.984375 75.445312 185.496094 74.101562 185.074219 73.382812 C 184.585938 72.554688 183.988281 72.039062 182.910156 71.523438 C 182.707031 71.425781 182.503906 71.296875 182.457031 71.222656 C 182.421875 71.164062 182.289062 71.101562 182.167969 71.101562 C 182.050781 71.101562 181.882812 71.019531 181.796875 70.921875 C 181.714844 70.828125 181.558594 70.742188 181.453125 70.742188 C 181.34375 70.742188 181.105469 70.660156 180.914062 70.5625 C 180.722656 70.457031 180.363281 70.324219 180.136719 70.277344 C 179.71875 70.167969 179.441406 70.082031 178.570312 69.785156 C 178.175781 69.652344 177.324219 69.472656 175.816406 69.195312 C 174 68.871094 172.039062 68.703125 169.671875 68.65625 C 167.625 68.609375 167.015625 68.5625 166.882812 68.429688 C 166.765625 68.320312 166.679688 67.78125 166.609375 66.835938 C 166.5 65.335938 166.308594 63.464844 166.117188 62.050781 C 166.058594 61.582031 165.949219 60.804688 165.878906 60.3125 C 165.820312 59.820312 165.710938 59.304688 165.652344 59.171875 C 165.59375 59.039062 165.484375 58.609375 165.425781 58.214844 C 165.234375 57.074219 164.945312 55.742188 164.851562 55.597656 C 164.804688 55.515625 164.730469 55.214844 164.683594 54.917969 C 164.636719 54.617188 164.492188 53.945312 164.335938 53.417969 C 164.191406 52.890625 164 52.160156 163.917969 51.796875 C 163.820312 51.4375 163.65625 50.839844 163.546875 50.480469 C 163.4375 50.121094 163.273438 49.519531 163.175781 49.160156 C 163.082031 48.800781 162.949219 48.453125 162.890625 48.382812 C 162.828125 48.320312 162.78125 48.164062 162.78125 48.046875 C 162.78125 47.925781 162.699219 47.675781 162.601562 47.507812 C 162.507812 47.324219 162.265625 46.835938 162.0625 46.402344 C 161.667969 45.550781 160.976562 44.246094 160.652344 43.765625 C 160.542969 43.597656 160.328125 43.226562 160.175781 42.925781 C 160.019531 42.625 159.851562 42.363281 159.804688 42.324219 C 159.71875 42.265625 159.300781 41.644531 159.191406 41.425781 C 158.976562 40.984375 156.8125 38.261719 156.023438 37.421875 C 154.972656 36.320312 153.332031 34.988281 152.507812 34.582031 C 152.410156 34.53125 152.066406 34.316406 151.730469 34.089844 C 151.394531 33.871094 151.035156 33.691406 150.929688 33.691406 C 150.820312 33.691406 150.664062 33.609375 150.582031 33.511719 C 150.5 33.417969 150.355469 33.332031 150.257812 33.332031 C 150.164062 33.332031 149.9375 33.261719 149.769531 33.164062 C 149.589844 33.082031 149.148438 32.878906 148.789062 32.734375 C 148.429688 32.589844 147.949219 32.398438 147.734375 32.300781 C 147.519531 32.207031 147.234375 32.132812 147.101562 32.132812 C 146.96875 32.132812 146.71875 32.0625 146.539062 31.964844 C 146.359375 31.882812 145.953125 31.773438 145.617188 31.726562 C 145.296875 31.679688 144.507812 31.570312 143.882812 31.476562 C 140.152344 30.921875 134.410156 30.683594 130.964844 30.933594 Z M 138.859375 32.855469 C 142.078125 33.058594 144.996094 33.417969 145.859375 33.703125 C 146.0625 33.777344 146.457031 33.898438 146.753906 33.980469 C 147.054688 34.066406 147.640625 34.269531 148.070312 34.4375 C 149.160156 34.867188 149.183594 34.878906 149.386719 35.011719 C 149.480469 35.070312 149.695312 35.179688 149.863281 35.25 C 150.03125 35.3125 150.246094 35.417969 150.34375 35.480469 C 150.4375 35.539062 150.605469 35.625 150.703125 35.671875 C 151.492188 35.984375 153.332031 37.386719 154.480469 38.539062 C 155.199219 39.246094 156.800781 41.257812 157.519531 42.324219 C 157.613281 42.46875 157.792969 42.722656 157.914062 42.867188 C 158.019531 43.023438 158.117188 43.175781 158.117188 43.226562 C 158.117188 43.273438 158.273438 43.511719 158.476562 43.765625 C 158.667969 44.003906 158.882812 44.339844 158.953125 44.496094 C 159.027344 44.652344 159.179688 44.941406 159.300781 45.144531 C 159.886719 46.066406 161.023438 48.5 161.285156 49.402344 C 161.371094 49.699219 161.5625 50.3125 161.703125 50.78125 C 161.847656 51.234375 162.003906 51.835938 162.0625 52.097656 C 162.113281 52.363281 162.207031 52.734375 162.277344 52.9375 C 162.421875 53.332031 162.578125 53.980469 162.851562 55.15625 C 162.949219 55.585938 163.105469 56.257812 163.199219 56.65625 C 163.296875 57.050781 163.4375 57.675781 163.511719 58.035156 C 163.582031 58.394531 163.714844 58.992188 163.796875 59.351562 C 164.039062 60.3125 164.203125 61.414062 164.335938 62.769531 C 164.394531 63.429688 164.503906 64.402344 164.574219 64.929688 C 164.648438 65.457031 164.753906 66.617188 164.816406 67.507812 C 164.957031 69.484375 165.136719 71.617188 165.292969 73.140625 C 165.363281 73.765625 165.472656 75.347656 165.53125 76.667969 C 165.605469 77.972656 165.6875 79.101562 165.722656 79.160156 C 165.757812 79.21875 165.84375 80.359375 165.890625 81.691406 C 165.949219 83.023438 166.046875 85.167969 166.117188 86.449219 C 166.429688 92.183594 166.511719 94.234375 166.621094 100.597656 C 166.859375 113.667969 166.753906 125.730469 166.359375 131.773438 C 166.285156 132.867188 166.15625 135.097656 166.070312 136.75 C 165.988281 138.394531 165.878906 139.832031 165.84375 139.929688 C 165.796875 140.035156 165.710938 140.945312 165.652344 141.964844 C 165.59375 142.984375 165.484375 144.257812 165.425781 144.785156 C 165.351562 145.3125 165.246094 146.28125 165.171875 146.941406 C 165.007812 148.539062 164.753906 150.46875 164.574219 151.5 C 164.503906 151.953125 164.335938 152.984375 164.203125 153.777344 C 164.074219 154.566406 163.941406 155.347656 163.90625 155.515625 C 163.871094 155.683594 163.773438 156.164062 163.679688 156.59375 C 163.511719 157.410156 163.246094 158.523438 162.960938 159.53125 C 162.878906 159.855469 162.769531 160.277344 162.734375 160.445312 C 162.601562 161.042969 162.136719 161.558594 161.40625 161.917969 C 161.011719 162.097656 160.53125 162.324219 160.351562 162.421875 C 160.164062 162.519531 159.933594 162.589844 159.828125 162.589844 C 159.730469 162.589844 159.480469 162.675781 159.277344 162.769531 C 158.894531 162.9375 158.464844 163.070312 157.339844 163.308594 C 157.015625 163.382812 156.550781 163.5 156.324219 163.574219 C 155.175781 163.933594 151.023438 164.125 148.90625 163.910156 C 146.277344 163.644531 143.859375 163.1875 142.832031 162.757812 C 142.617188 162.660156 142.363281 162.589844 142.269531 162.589844 C 142.066406 162.589844 140.152344 161.871094 139.386719 161.5 C 139.113281 161.378906 138.835938 161.269531 138.753906 161.269531 C 138.679688 161.269531 138.621094 161.234375 138.621094 161.175781 C 138.621094 161.128906 138.464844 161.007812 138.285156 160.898438 C 137.925781 160.695312 137.507812 160 137.367188 159.375 C 137.328125 159.171875 137.234375 158.96875 137.175781 158.933594 C 137.113281 158.886719 137.066406 158.753906 137.066406 158.609375 C 137.066406 158.476562 136.996094 158.203125 136.898438 157.996094 C 136.324219 156.679688 135.558594 153.355469 135.140625 150.300781 C 135.082031 149.832031 134.960938 149.003906 134.878906 148.441406 C 134.78125 147.78125 134.734375 145.921875 134.734375 143.152344 L 134.734375 138.871094 L 134.433594 138.621094 C 134.089844 138.332031 133.492188 138.1875 133.023438 138.285156 C 132.507812 138.382812 123.15625 138.164062 121.636719 138.023438 C 116.878906 137.542969 114.710938 137.242188 113.445312 136.859375 C 113.121094 136.75 112.582031 136.691406 112.25 136.714844 C 111.6875 136.75 111.636719 136.773438 111.519531 137.171875 C 111.351562 137.675781 111.496094 138.164062 111.867188 138.34375 C 112.703125 138.742188 117.390625 139.566406 119.878906 139.75 C 120.847656 139.820312 120.945312 139.855469 121.0625 140.121094 C 121.242188 140.515625 120.992188 148.238281 120.753906 149.785156 C 120.65625 150.394531 120.511719 151.308594 120.429688 151.796875 C 120 154.605469 119.796875 155.660156 119.53125 156.476562 C 119.4375 156.773438 119.363281 157.109375 119.363281 157.21875 C 119.363281 157.433594 118.789062 157.925781 118.289062 158.140625 C 118.121094 158.214844 117.90625 158.320312 117.808594 158.382812 C 117.644531 158.476562 117.402344 158.585938 116.363281 159.027344 C 116.113281 159.136719 115.71875 159.257812 115.464844 159.304688 C 115.203125 159.351562 114.914062 159.425781 114.808594 159.484375 C 114.425781 159.6875 112.703125 159.976562 111.386719 160.070312 C 110.65625 160.121094 109.042969 160.121094 107.800781 160.070312 C 105.371094 159.964844 104.117188 159.773438 101.542969 159.113281 C 101.246094 159.039062 100.789062 158.921875 100.527344 158.859375 C 100.265625 158.789062 99.832031 158.597656 99.582031 158.417969 C 99.082031 158.070312 98.339844 157.132812 98.328125 156.835938 C 98.316406 156.738281 98.242188 156.523438 98.160156 156.355469 C 98.003906 156.054688 97.644531 155.046875 97.464844 154.375 C 97.417969 154.171875 97.25 153.632812 97.117188 153.175781 C 96.808594 152.195312 96.496094 150.804688 96.042969 148.5 C 95.96875 148.105469 95.828125 147.46875 95.730469 147.097656 C 95.636719 146.714844 95.5625 146.199219 95.5625 145.960938 C 95.5625 145.707031 95.492188 145.179688 95.394531 144.785156 C 95.300781 144.386719 95.191406 143.71875 95.15625 143.285156 C 95.109375 142.855469 95.027344 142.339844 94.964844 142.144531 C 94.847656 141.773438 94.75 141.175781 94.425781 138.945312 C 94.332031 138.226562 94.199219 137.421875 94.128906 137.144531 C 94.070312 136.859375 94.007812 136.390625 94.007812 136.089844 C 94.007812 135.792969 93.9375 135.011719 93.839844 134.351562 C 93.507812 132.097656 93.136719 127.699219 92.945312 123.5625 C 92.871094 122.109375 92.765625 119.734375 92.691406 118.285156 C 92.550781 115.082031 92.550781 104.089844 92.691406 100.78125 C 92.753906 99.460938 92.859375 96.703125 92.933594 94.664062 C 93.003906 92.613281 93.113281 90.574219 93.183594 90.121094 C 93.242188 89.664062 93.328125 88.429688 93.363281 87.363281 C 93.398438 86.296875 93.445312 85.3125 93.484375 85.15625 C 93.566406 84.761719 93.925781 84.820312 95.265625 85.46875 C 97.117188 86.378906 97.550781 86.570312 97.730469 86.570312 C 97.824219 86.570312 98.003906 86.65625 98.125 86.75 C 98.253906 86.847656 98.433594 86.929688 98.53125 86.929688 C 98.625 86.929688 98.863281 87.003906 99.066406 87.097656 C 99.558594 87.3125 100.527344 87.636719 101.066406 87.769531 C 101.292969 87.816406 101.652344 87.925781 101.84375 87.984375 C 103.183594 88.441406 106.339844 89.125 108.015625 89.328125 C 108.457031 89.386719 109.019531 89.484375 109.269531 89.554688 C 109.535156 89.628906 110.492188 89.734375 111.410156 89.808594 C 112.332031 89.878906 113.625 89.988281 114.28125 90.046875 C 114.941406 90.109375 117.152344 90.15625 119.1875 90.167969 C 122.917969 90.167969 124.867188 90.035156 126.542969 89.628906 C 126.898438 89.542969 127.472656 89.414062 127.796875 89.351562 C 128.800781 89.148438 129.460938 88.96875 129.855469 88.789062 C 130.058594 88.691406 130.285156 88.609375 130.367188 88.609375 C 130.453125 88.609375 130.65625 88.539062 130.824219 88.441406 C 131.003906 88.355469 131.421875 88.164062 131.746094 88.023438 C 132.078125 87.867188 132.484375 87.675781 132.664062 87.578125 C 132.832031 87.480469 133.058594 87.410156 133.167969 87.410156 C 133.273438 87.410156 133.359375 87.363281 133.359375 87.289062 C 133.359375 87.230469 133.503906 87.132812 133.695312 87.097656 C 133.875 87.050781 134.101562 86.953125 134.195312 86.871094 C 134.292969 86.785156 134.496094 86.679688 134.652344 86.644531 C 134.792969 86.59375 134.914062 86.5 134.914062 86.4375 C 134.914062 86.378906 134.984375 86.332031 135.070312 86.332031 C 135.1875 86.332031 136.492188 85.539062 136.886719 85.226562 C 136.957031 85.167969 137.125 85.035156 137.269531 84.917969 C 137.414062 84.808594 137.664062 84.605469 137.84375 84.484375 C 138.882812 83.703125 140.605469 82.039062 141.121094 81.296875 C 141.382812 80.898438 141.613281 80.539062 141.613281 80.503906 C 141.613281 80.46875 141.695312 80.265625 141.789062 80.058594 C 142.148438 79.269531 142.425781 78.464844 142.507812 77.9375 C 142.554688 77.636719 142.640625 77.339844 142.6875 77.277344 C 142.785156 77.144531 142.976562 76.019531 143.179688 74.28125 C 143.25 73.679688 143.382812 72.734375 143.476562 72.160156 C 143.703125 70.765625 143.835938 64.160156 143.65625 62.53125 C 143.511719 61.152344 143.261719 59.84375 143.023438 59.234375 C 142.507812 57.902344 141.433594 56.425781 139.757812 54.734375 C 138.347656 53.320312 137.414062 52.589844 136.347656 52.0625 C 136.050781 51.90625 135.726562 51.738281 135.632812 51.679688 C 135.105469 51.378906 134.398438 51.078125 134.195312 51.078125 C 134.066406 51.078125 133.789062 51.007812 133.574219 50.910156 C 133.132812 50.71875 132.246094 50.5625 130.308594 50.3125 C 124.988281 49.628906 120.296875 49.386719 116.792969 49.628906 C 115.679688 49.699219 113.816406 49.820312 112.667969 49.878906 C 109.460938 50.058594 106.554688 50.394531 104.714844 50.792969 C 104.257812 50.886719 103.613281 51.019531 103.277344 51.078125 C 102.25 51.269531 101.375 51.5 101.101562 51.65625 C 100.765625 51.847656 100.527344 51.835938 100.359375 51.628906 C 100.253906 51.5 100.3125 51.257812 100.648438 50.527344 C 101.542969 48.574219 101.949219 47.78125 102.046875 47.746094 C 102.09375 47.722656 102.140625 47.660156 102.140625 47.601562 C 102.140625 47.445312 102.355469 46.976562 102.621094 46.582031 C 102.753906 46.378906 102.90625 46.089844 102.980469 45.933594 C 103.050781 45.78125 103.265625 45.40625 103.457031 45.121094 C 103.660156 44.832031 103.816406 44.566406 103.816406 44.542969 C 103.816406 44.339844 104.988281 42.839844 105.671875 42.171875 C 106.4375 41.414062 108.984375 39.328125 109.140625 39.328125 C 109.175781 39.328125 109.269531 39.269531 109.355469 39.207031 C 109.90625 38.742188 110.082031 38.609375 110.167969 38.609375 C 110.214844 38.609375 110.335938 38.539062 110.417969 38.453125 C 110.503906 38.371094 110.835938 38.128906 111.148438 37.9375 C 111.472656 37.746094 111.878906 37.492188 112.046875 37.386719 C 112.226562 37.265625 112.511719 37.109375 112.703125 37.039062 C 112.882812 36.964844 113.027344 36.859375 113.027344 36.8125 C 113.027344 36.75 113.195312 36.679688 113.386719 36.628906 C 113.589844 36.582031 113.742188 36.511719 113.742188 36.476562 C 113.742188 36.390625 113.996094 36.269531 115.476562 35.613281 C 115.742188 35.503906 116.148438 35.3125 116.398438 35.203125 C 116.636719 35.097656 116.902344 35.011719 116.996094 35.011719 C 117.09375 35.011719 117.222656 34.953125 117.296875 34.878906 C 117.367188 34.808594 117.605469 34.710938 117.820312 34.652344 C 118.203125 34.554688 118.445312 34.484375 119.402344 34.160156 C 120 33.957031 121.351562 33.691406 122.535156 33.5625 C 123.132812 33.5 123.933594 33.394531 124.328125 33.332031 C 124.722656 33.261719 125.90625 33.152344 126.960938 33.082031 C 128.011719 33.007812 129.472656 32.914062 130.1875 32.867188 C 132.042969 32.734375 136.933594 32.734375 138.859375 32.855469 Z M 126.242188 51.714844 C 127.5 51.8125 128.835938 51.953125 129.234375 52.027344 C 129.628906 52.085938 130.332031 52.207031 130.789062 52.265625 C 132.113281 52.445312 133.023438 52.636719 133.441406 52.828125 C 133.644531 52.925781 133.886719 52.996094 133.980469 53.007812 C 134.125 53.007812 134.375 53.128906 135.570312 53.777344 C 136.550781 54.292969 137.148438 54.761719 138.335938 55.933594 C 140.273438 57.867188 141.121094 59.171875 141.550781 60.910156 C 142.019531 62.78125 142.019531 69.953125 141.550781 72.46875 C 141.457031 72.984375 141.371094 73.691406 141.371094 74.039062 C 141.371094 74.402344 141.324219 74.820312 141.265625 74.976562 C 141.203125 75.144531 141.097656 75.695312 141.027344 76.199219 C 140.953125 76.714844 140.847656 77.195312 140.785156 77.265625 C 140.726562 77.339844 140.644531 77.613281 140.582031 77.867188 C 140.535156 78.128906 140.425781 78.476562 140.34375 78.644531 C 140.246094 78.8125 140.175781 79.027344 140.175781 79.113281 C 140.175781 79.582031 138.945312 81.089844 137.773438 82.074219 C 137.304688 82.46875 136.792969 82.902344 136.648438 83.035156 C 136.492188 83.164062 136.253906 83.355469 136.109375 83.453125 C 135.964844 83.550781 135.714844 83.730469 135.570312 83.835938 C 135.414062 83.957031 135.238281 84.054688 135.175781 84.054688 C 135.105469 84.054688 135.035156 84.089844 135.007812 84.148438 C 134.960938 84.257812 133.550781 85.082031 132.761719 85.480469 C 132.460938 85.625 132.140625 85.792969 132.042969 85.839844 C 131.949219 85.898438 131.601562 86.054688 131.265625 86.210938 C 130.941406 86.355469 130.523438 86.546875 130.34375 86.644531 C 130.175781 86.738281 129.925781 86.8125 129.804688 86.8125 C 129.6875 86.8125 129.519531 86.871094 129.449219 86.941406 C 129.375 87.015625 129.101562 87.121094 128.851562 87.171875 C 128.597656 87.230469 128.238281 87.324219 128.035156 87.386719 C 127.101562 87.710938 124.675781 88.070312 122.175781 88.273438 C 119.582031 88.476562 113.179688 88.203125 110.035156 87.757812 C 106.628906 87.277344 105.40625 87.039062 103.515625 86.511719 C 103.195312 86.414062 102.726562 86.308594 102.5 86.257812 C 102.273438 86.222656 102.035156 86.140625 101.960938 86.089844 C 101.902344 86.042969 101.605469 85.945312 101.304688 85.875 C 100.671875 85.730469 100.109375 85.539062 99.4375 85.238281 C 99.164062 85.109375 98.890625 85.011719 98.804688 85.011719 C 98.734375 85.011719 98.578125 84.964844 98.457031 84.902344 C 98.351562 84.84375 97.992188 84.675781 97.65625 84.53125 C 97.335938 84.386719 96.628906 84.066406 96.101562 83.800781 C 95.167969 83.34375 94.953125 83.226562 94.523438 82.972656 C 94.402344 82.902344 94.152344 82.769531 93.949219 82.675781 C 93.398438 82.398438 93.125 82.207031 93.015625 82.039062 C 92.96875 81.964844 92.871094 81.894531 92.800781 81.894531 C 92.65625 81.894531 92.082031 81.488281 91.570312 81.019531 C 91.367188 80.839844 91.164062 80.695312 91.101562 80.695312 C 90.921875 80.695312 89.128906 78.898438 88.53125 78.117188 C 87.875 77.277344 87.71875 77.027344 87.550781 76.617188 C 87.480469 76.449219 87.347656 76.152344 87.261719 75.960938 C 86.75 74.832031 86.496094 73.441406 86.390625 71.378906 C 86.320312 69.699219 86.59375 67.253906 86.976562 66.246094 C 87.289062 65.417969 88.066406 63.910156 88.171875 63.910156 C 88.230469 63.910156 88.269531 63.859375 88.269531 63.789062 C 88.269531 63.679688 89.476562 61.847656 89.738281 61.570312 C 89.824219 61.488281 90.039062 61.210938 90.242188 60.960938 C 90.804688 60.214844 93.28125 57.769531 94.1875 57.0625 C 95.191406 56.269531 96.316406 55.515625 96.496094 55.515625 C 96.570312 55.515625 96.640625 55.480469 96.664062 55.417969 C 96.722656 55.277344 99.285156 54.078125 99.546875 54.078125 C 99.628906 54.078125 99.84375 53.992188 100.035156 53.898438 C 100.371094 53.71875 100.574219 53.65625 101.785156 53.355469 C 102.082031 53.285156 102.574219 53.140625 102.871094 53.046875 C 103.183594 52.949219 103.589844 52.878906 103.769531 52.878906 C 103.960938 52.878906 104.308594 52.816406 104.535156 52.746094 C 105.898438 52.339844 110.132812 51.847656 114.878906 51.570312 C 117.34375 51.425781 123.492188 51.5 126.242188 51.714844 Z M 172.410156 70.625 C 173.878906 70.765625 175.699219 71.03125 176.417969 71.210938 C 176.714844 71.28125 177.195312 71.390625 177.492188 71.460938 C 178.378906 71.679688 179.203125 71.90625 179.644531 72.0625 C 179.871094 72.144531 180.125 72.242188 180.183594 72.253906 C 180.253906 72.277344 180.386719 72.351562 180.484375 72.398438 C 180.675781 72.519531 181.320312 72.816406 181.796875 73.023438 C 182.574219 73.355469 183.304688 73.96875 183.542969 74.472656 C 184.070312 75.585938 184.15625 75.910156 184.789062 79.136719 C 184.859375 79.496094 184.980469 80.035156 185.050781 80.335938 C 185.113281 80.636719 185.21875 81.246094 185.265625 81.714844 C 185.328125 82.171875 185.421875 82.855469 185.496094 83.214844 C 185.6875 84.234375 185.851562 85.625 186.03125 87.648438 C 186.128906 88.667969 186.234375 89.640625 186.273438 89.808594 C 186.320312 89.976562 186.402344 90.996094 186.464844 92.085938 C 186.523438 93.175781 186.617188 94.867188 186.691406 95.863281 C 187.167969 103.035156 187.277344 116.8125 186.894531 121.222656 C 186.773438 122.507812 186.628906 123.886719 186.570312 124.28125 C 185.839844 128.574219 185.625 129.257812 184.371094 131.535156 C 183.832031 132.492188 182.074219 134.089844 181.140625 134.449219 C 180.472656 134.710938 180.0625 134.820312 179.40625 134.902344 C 178.976562 134.964844 178.546875 135.046875 178.449219 135.082031 C 178.355469 135.121094 177.730469 135.238281 177.074219 135.324219 C 173.964844 135.765625 170.960938 135.78125 169.0625 135.371094 L 168.105469 135.167969 L 168.117188 134.160156 C 168.117188 133.609375 168.1875 131.835938 168.269531 130.214844 C 168.460938 126.34375 168.605469 111.089844 168.511719 102.878906 C 168.4375 96.847656 168.390625 95.046875 168.03125 87.769531 C 167.972656 86.355469 167.863281 84.113281 167.816406 82.792969 C 167.757812 81.476562 167.648438 79.832031 167.578125 79.136719 C 167.492188 78.441406 167.386719 77.015625 167.328125 75.960938 C 167.265625 74.902344 167.148438 73.320312 167.074219 72.457031 C 167.003906 71.582031 166.96875 70.78125 167.015625 70.683594 C 167.0625 70.527344 167.410156 70.503906 169.144531 70.503906 C 170.28125 70.515625 171.75 70.5625 172.410156 70.625 Z M 172.410156 70.625 "/>
</g>
</svg>
